<svg xmlns="http://www.w3.org/2000/svg" xmlns:xlink="http://www.w3.org/1999/xlink" version="1.1" id="Layer_1" x="0px" y="0px" width="100px" height="100px" viewBox="0 0 100 100" enable-background="new 0 0 100 100" xml:space="preserve">
<path fill="rgba(0,0,0,.20)" d="M8.647,54.296c2.151,10.248,7.35,18.779,15.034,24.671c6.93,5.313,15.715,8.24,24.737,8.24  c11.777,0,22.934-4.878,30.613-13.382c5.891-6.525,12.513-18.218,10.604-36.862c-0.119-1.164-0.293-2.309-0.521-3.428  c1.336-1.785,2.336-2.914,2.345-2.924c2.028-2.263,2.599-5.481,1.472-8.304c-1.126-2.823-3.755-4.763-6.784-5.009  c-1.286-0.104-2.58-0.157-3.846-0.157c-0.835,0-1.667,0.023-2.497,0.068c-4.873-4.201-11.097-6.545-17.633-6.545  c-7.301,0-13.938,2.996-18.21,8.217c-4.282,5.234-5.848,12.325-4.437,20.022c-4.021-0.966-7.789-2.487-9.366-3.229  c-1.092-0.518-2.264-0.772-3.429-0.772c-1.764,0-3.514,0.583-4.952,1.716c-2.388,1.881-3.503,4.953-2.879,7.928  c0.037,0.173,0.074,0.346,0.112,0.518c-0.825-0.275-1.68-0.411-2.531-0.411c-1.764,0-3.514,0.583-4.952,1.716  C9.138,48.249,8.023,51.32,8.647,54.296z M16.477,52.652c0,0,8.609,4.087,16.865,4.778c-3.059-3.891-5.395-8.713-6.615-14.528  c0,0,10.266,4.872,19.127,4.872c0.749,0,1.488-0.035,2.21-0.11c0.356-2.593,0.212-5.803-0.587-9.762  c-2.545-12.6,5.664-19.237,14.693-19.237c5.26,0,10.795,2.25,14.648,6.885c1.755-0.267,3.583-0.408,5.481-0.408  c1.046,0,2.112,0.043,3.2,0.131c0,0-2.482,2.771-5.079,6.727c0.608,1.75,1.04,3.674,1.256,5.778  c2.8,27.346-15.294,41.43-33.258,41.43C34.279,79.207,20.22,70.489,16.477,52.652z"/>
</svg>