<svg xmlns="http://www.w3.org/2000/svg" xmlns:xlink="http://www.w3.org/1999/xlink" version="1.1" x="0px" y="0px" width="100px" height="100px" viewBox="0 0 100 100" enable-background="new 0 0 100 100" xml:space="preserve">
<g id="Captions">
</g>
<g id="Layer_7" display="none">
</g>
<g id="Your_Icon" display="none">
	<path fill="#BBB" display="inline" d="M50.002,32.008c9.916,0,17.989,8.07,17.989,17.992c0,9.92-8.073,17.99-17.989,17.99   c-9.921,0-17.995-8.07-17.995-17.99C32.007,40.078,40.081,32.008,50.002,32.008 M50.002,14.018   C30.13,14.018,14.018,30.127,14.018,50S30.13,85.982,50.002,85.982c19.873,0,35.98-16.109,35.98-35.982   S69.875,14.018,50.002,14.018L50.002,14.018z"/>
</g>
<g id="Layer_6" display="none">
	<polygon display="inline" points="79.401,33.663 79.401,54.628 20.597,54.628 20.597,27.131 14.064,27.131 14.064,72.869    20.597,72.869 20.597,61.161 79.401,61.161 79.401,72.869 85.936,72.869 85.936,33.663  "/>
	<path display="inline" d="M32.622,51.02c4.41,0,7.986-3.576,7.986-7.984c0-4.409-3.576-7.985-7.986-7.985   c-4.407,0-7.985,3.576-7.985,7.985C24.637,47.443,28.214,51.02,32.622,51.02z"/>
	<polygon display="inline" points="74.363,47.751 74.363,37.952 64.565,37.952 43.804,37.952 43.804,51.02 74.363,51.02  "/>
</g>
<g id="Layer_5">
	<path fill="#BBB" d="M50.463,22.014c-19.869,0-35.984,11.045-35.984,24.674c0,6.475,3.667,12.342,9.612,16.748l-4.027,14.551l20.54-7.582   c3.132,0.615,6.438,0.967,9.859,0.967c19.873,0,35.98-11.049,35.98-24.684C86.443,33.059,70.336,22.014,50.463,22.014z"/>
</g>
<g id="Layer_4" display="none">
	
		<rect x="15.206" y="32.138" transform="matrix(0.7071 0.7071 -0.7071 0.7071 47.1326 -19.5203)" display="inline" width="63.844" height="29.986"/>
	<polygon display="inline" points="64.752,85.957 64.842,86.045 85.982,85.98 86.045,64.842 85.957,64.756  "/>
</g>
</svg>